<svg width="296" height="246" viewBox="0 0 296 246" fill="none" xmlns="http://www.w3.org/2000/svg">
<path d="M37.4912 231.928C21.2646 199.93 72.4096 121.449 100.345 109.57C104.819 107.668 115.149 108.433 113.23 117.631C111.311 126.829 95.8552 122.728 100.346 109.571C104.837 96.4145 157.479 52.4315 229.652 71.8797" stroke="#FF4CCD" stroke-width="1.3" stroke-linecap="round" stroke-linejoin="round" stroke-dasharray="10 10"/>
<path d="M42.5854 233.458C42.4628 233.432 42.3494 233.458 42.2453 233.534L36.8648 237.496C36.7607 237.573 36.6939 237.68 36.6644 237.818C36.635 237.956 36.6521 238.081 36.7159 238.193C36.7796 238.305 36.8728 238.373 36.9955 238.399L41.3334 239.312C41.4562 239.337 41.5696 239.312 41.6736 239.236C41.7777 239.159 41.8445 239.052 41.8739 238.914L42.9165 234.039C42.9459 233.902 42.9289 233.777 42.8651 233.665C42.8014 233.553 42.7081 233.484 42.5854 233.458Z" fill="#4D586C"/>
<g clip-path="url(#clip0_14402_11690)">
<path d="M266.56 61.7348C265.918 61.2134 264.982 61.681 264.98 62.524L264.962 68.176C264.961 68.555 264.756 68.9008 264.431 69.0724L258.437 72.236C257.615 72.6701 257.783 73.9379 258.689 74.1329L263.02 75.0652C263.642 75.1992 263.981 75.9025 263.709 76.4963L260.922 82.5801C260.586 83.3147 261.182 84.1436 261.958 84.0207L286.525 80.1334C287.371 79.9996 287.65 78.883 286.975 78.3342L266.56 61.7348ZM265.784 81.2503C265.007 81.3708 264.414 80.5395 264.753 79.8059L266.942 75.0706C267.136 74.6525 267.579 74.4252 268.018 74.519L273.789 75.7512C274.889 75.986 275.436 74.4315 274.451 73.8701L267.707 70.0246C267.396 69.8472 267.201 69.5097 267.198 69.1423L267.177 67.0466C267.169 66.1978 268.11 65.7191 268.757 66.2435L282.011 77.0037C282.688 77.5532 282.407 78.6725 281.559 78.8039L265.784 81.2503Z" fill="#FF4CCD"/>
</g>
<defs>
<clipPath id="clip0_14402_11690">
<rect width="32.8039" height="35.5214" fill="white" transform="matrix(0.365226 0.942351 -0.907472 0.374498 280.918 50.5195)"/>
</clipPath>
</defs>
</svg>
