<svg width="64" height="64" viewBox="0 0 64 64" fill="none" xmlns="http://www.w3.org/2000/svg">
<path d="M10 63.982C10.553 63.982 11 63.535 11 62.982V57.004C11 53.143 14.141 50.002 18.002 50.002L24.826 50.003L29.025 51.502L24.661 53.06C24.652 53.063 24.646 53.071 24.639 53.074C24.565 53.103 24.503 53.15 24.439 53.194C24.395 53.224 24.346 53.246 24.309 53.282C24.26 53.328 24.229 53.386 24.191 53.442C24.156 53.493 24.114 53.538 24.088 53.593C24.066 53.644 24.061 53.701 24.047 53.757C24.027 53.828 24.005 53.898 24.003 53.974C24.002 53.984 23.997 53.992 23.997 54.001V63C23.997 63.553 24.444 64 24.997 64C25.55 64 25.997 63.553 25.997 63V54.706L32.299 52.457L32.3 52.456L39.173 50.003L46 50.004C49.859 50.004 53 53.145 53 57.004V62.983C53 63.536 53.447 63.983 54 63.983C54.553 63.983 55 63.536 55 62.983V57.004C55 52.041 50.963 48.004 46 48.004L40 48.003V43.838C44.773 41.067 47.999 35.91 48 30.005L48.015 18.406C50.934 17.212 52.998 14.345 52.998 11.001C52.998 6.59 49.409 3.001 44.998 3.001H39.543C37.573 1.146 34.929 0 32.016 0C29.102 0 26.456 1.147 24.487 3.003H19.014C14.603 3.003 11.014 6.592 11.014 11.003C11.014 14.354 13.086 17.225 16.015 18.414L16.008 23.965C16.007 23.979 16 23.989 16 24.003C16 24.016 16.007 24.027 16.008 24.041L16 30.001V30.002C16 35.908 19.226 41.065 24 43.837V48.003L18.002 48.002C13.038 48.003 9 52.041 9 57.005V62.983C9 63.535 9.447 63.982 10 63.982ZM38 48.299L31.998 50.442L26 48.3V44.825C27.854 45.578 29.878 46.003 32 46.003C34.122 46.003 36.146 45.578 38 44.825V48.299ZM13.014 11.003C13.014 7.694 15.705 5.003 19.014 5.003H22.807C21.678 6.73 21.016 8.788 21.016 11C21.016 11.552 21.463 12 22.016 12C22.569 12 23.016 11.552 23.016 11C23.016 6.038 27.053 2 32.016 2C36.979 2 41.016 6.038 41.016 11C41.016 11.552 41.463 12 42.016 12C42.569 12 43.016 11.552 43.016 11C43.016 8.787 42.353 6.728 41.224 5.001H44.998C48.307 5.001 50.998 7.692 50.998 11.001C50.998 14.31 48.307 17.001 44.998 17.001C44.445 17.001 43.998 17.449 43.998 18.001C43.998 18.553 44.445 19.001 44.998 19.001C45.343 19.001 45.681 18.972 46.014 18.929L46.009 23.003H18.009L18.014 18.934C18.343 18.975 18.675 19.003 19.014 19.003C19.567 19.003 20.014 18.555 20.014 18.003C20.014 17.451 19.567 17.003 19.014 17.003C15.705 17.003 13.014 14.312 13.014 11.003ZM18 30.003L18.006 25.003H46.006L46 30.001V30.002C46 37.722 39.72 44.002 32 44.002C24.28 44.002 18 37.723 18 30.003Z" fill="#FF4CCD"/>
<path d="M34.5 37.9941H38C41.309 37.9941 44 35.3031 44 31.9941V29.9961C44 29.4441 43.553 28.9961 43 28.9961H42.998C42.445 28.9961 41.998 29.4441 41.998 29.9961C41.998 30.5461 41.551 30.9941 41 30.9941H34.5C33.521 30.9941 32.636 31.4011 32 32.0521C31.364 31.4011 30.479 30.9941 29.5 30.9941H23C22.449 30.9941 22.002 30.5461 22.002 29.9961C22.002 29.4441 21.555 28.9961 21.002 28.9961H21.001C20.448 28.9961 20 29.4441 20 29.9961V31.9941C20 35.3031 22.691 37.9941 26 37.9941H29.5C30.479 37.9941 31.364 37.5871 32 36.9351C32.636 37.5871 33.521 37.9941 34.5 37.9941ZM34.5 32.9941H41C41.318 32.9941 41.618 32.9311 41.906 32.8391C41.516 34.6401 39.916 35.9941 38 35.9941H34.5C33.673 35.9941 33 35.3211 33 34.4941C33 33.6671 33.673 32.9941 34.5 32.9941ZM29.5 35.9941H26C24.084 35.9941 22.483 34.6401 22.094 32.8391C22.382 32.9311 22.682 32.9941 23 32.9941H29.5C30.327 32.9941 31 33.6671 31 34.4941C31 35.3211 30.327 35.9941 29.5 35.9941Z" fill="#FF4CCD"/>
<path d="M29.0294 58C29.5814 58 30.0294 57.553 30.0294 57C30.0294 56.447 29.5814 56 29.0294 56H29.0194C28.4674 56 28.0254 56.447 28.0254 57C28.0254 57.553 28.4774 58 29.0294 58Z" fill="#FF4CCD"/>
<path d="M29.0294 61.998C29.5814 61.998 30.0294 61.551 30.0294 60.998C30.0294 60.445 29.5814 59.998 29.0294 59.998H29.0194C28.4674 59.998 28.0254 60.445 28.0254 60.998C28.0254 61.551 28.4774 61.998 29.0294 61.998Z" fill="#FF4CCD"/>
<path d="M35.0363 58C35.5883 58 36.0363 57.553 36.0363 57C36.0363 56.447 35.5883 56 35.0363 56H35.0253C34.4733 56 34.0312 56.447 34.0312 57C34.0312 57.553 34.4833 58 35.0363 58Z" fill="#FF4CCD"/>
<path d="M35.0363 61.998C35.5883 61.998 36.0363 61.551 36.0363 60.998C36.0363 60.445 35.5883 59.998 35.0363 59.998H35.0253C34.4733 59.998 34.0312 60.445 34.0312 60.998C34.0312 61.551 34.4833 61.998 35.0363 61.998Z" fill="#FF4CCD"/>
</svg>
