<svg width="64" height="64" viewBox="0 0 64 64" fill="none" xmlns="http://www.w3.org/2000/svg">
<path d="M50.9844 37.0098H54.9854C55.5384 37.0098 55.9854 36.5628 55.9854 36.0098C55.9854 35.4568 55.5384 35.0098 54.9854 35.0098H50.9844C50.4314 35.0098 49.9844 35.4568 49.9844 36.0098C49.9844 36.5628 50.4324 37.0098 50.9844 37.0098Z" fill="#FF4CCD"/>
<path d="M36.9902 37.0098H44.9952C45.5482 37.0098 45.9952 36.5628 45.9952 36.0098C45.9952 35.4568 45.5482 35.0098 44.9952 35.0098H36.9902C36.4372 35.0098 35.9902 35.4568 35.9902 36.0098C35.9902 36.5628 36.4382 37.0098 36.9902 37.0098Z" fill="#FF4CCD"/>
<path d="M36.9902 41.0098H40.9912C41.5442 41.0098 41.9912 40.5628 41.9912 40.0098C41.9912 39.4568 41.5442 39.0098 40.9912 39.0098H36.9902C36.4372 39.0098 35.9902 39.4568 35.9902 40.0098C35.9902 40.5628 36.4382 41.0098 36.9902 41.0098Z" fill="#FF4CCD"/>
<path d="M36.9902 45.0098H45.9962C46.5492 45.0098 46.9962 44.5628 46.9962 44.0098C46.9962 43.4568 46.5492 43.0098 45.9962 43.0098H36.9902C36.4372 43.0098 35.9902 43.4568 35.9902 44.0098C35.9902 44.5628 36.4382 45.0098 36.9902 45.0098Z" fill="#FF4CCD"/>
<path d="M36.9902 49.0098H42.9932C43.5462 49.0098 43.9932 48.5628 43.9932 48.0098C43.9932 47.4568 43.5462 47.0098 42.9932 47.0098H36.9902C36.4372 47.0098 35.9902 47.4568 35.9902 48.0098C35.9902 48.5628 36.4382 49.0098 36.9902 49.0098Z" fill="#FF4CCD"/>
<path d="M54.9853 39.0098H52.9863C52.4333 39.0098 51.9863 39.4568 51.9863 40.0098C51.9863 40.5628 52.4333 41.0098 52.9863 41.0098H54.9853C55.5383 41.0098 55.9853 40.5628 55.9853 40.0098C55.9853 39.4568 55.5383 39.0098 54.9853 39.0098Z" fill="#FF4CCD"/>
<path d="M54.9863 43.0098H53.9883C53.4353 43.0098 52.9883 43.4568 52.9883 44.0098C52.9883 44.5628 53.4353 45.0098 53.9883 45.0098H54.9863C55.5393 45.0098 55.9863 44.5628 55.9863 44.0098C55.9863 43.4568 55.5393 43.0098 54.9863 43.0098Z" fill="#FF4CCD"/>
<path d="M54.9863 47.0098H51.9863C51.4333 47.0098 50.9863 47.4568 50.9863 48.0098C50.9863 48.5628 51.4333 49.0098 51.9863 49.0098H54.9863C55.5393 49.0098 55.9863 48.5628 55.9863 48.0098C55.9863 47.4568 55.5393 47.0098 54.9863 47.0098Z" fill="#FF4CCD"/>
<path d="M50.9844 13.0039H54.9854C55.5384 13.0039 55.9854 12.5569 55.9854 12.0039C55.9854 11.4509 55.5384 11.0039 54.9854 11.0039H50.9844C50.4314 11.0039 49.9844 11.4509 49.9844 12.0039C49.9844 12.5569 50.4324 13.0039 50.9844 13.0039Z" fill="#FF4CCD"/>
<path d="M36.9902 13.0039H44.9952C45.5482 13.0039 45.9952 12.5569 45.9952 12.0039C45.9952 11.4509 45.5482 11.0039 44.9952 11.0039H36.9902C36.4372 11.0039 35.9902 11.4509 35.9902 12.0039C35.9902 12.5569 36.4382 13.0039 36.9902 13.0039Z" fill="#FF4CCD"/>
<path d="M36.9902 17.0039H40.9912C41.5442 17.0039 41.9912 16.5569 41.9912 16.0039C41.9912 15.4509 41.5442 15.0039 40.9912 15.0039H36.9902C36.4372 15.0039 35.9902 15.4509 35.9902 16.0039C35.9902 16.5569 36.4382 17.0039 36.9902 17.0039Z" fill="#FF4CCD"/>
<path d="M36.9902 21.0039H45.9962C46.5492 21.0039 46.9962 20.5569 46.9962 20.0039C46.9962 19.4509 46.5492 19.0039 45.9962 19.0039H36.9902C36.4372 19.0039 35.9902 19.4509 35.9902 20.0039C35.9902 20.5569 36.4382 21.0039 36.9902 21.0039Z" fill="#FF4CCD"/>
<path d="M36.9902 25.0039H42.9932C43.5462 25.0039 43.9932 24.5569 43.9932 24.0039C43.9932 23.4509 43.5462 23.0039 42.9932 23.0039H36.9902C36.4372 23.0039 35.9902 23.4509 35.9902 24.0039C35.9902 24.5569 36.4382 25.0039 36.9902 25.0039Z" fill="#FF4CCD"/>
<path d="M54.9853 15.0039H52.9863C52.4333 15.0039 51.9863 15.4509 51.9863 16.0039C51.9863 16.5569 52.4333 17.0039 52.9863 17.0039H54.9853C55.5383 17.0039 55.9853 16.5569 55.9853 16.0039C55.9853 15.4509 55.5383 15.0039 54.9853 15.0039Z" fill="#FF4CCD"/>
<path d="M54.9863 19.0039H53.9883C53.4353 19.0039 52.9883 19.4509 52.9883 20.0039C52.9883 20.5569 53.4353 21.0039 53.9883 21.0039H54.9863C55.5393 21.0039 55.9863 20.5569 55.9863 20.0039C55.9863 19.4509 55.5393 19.0039 54.9863 19.0039Z" fill="#FF4CCD"/>
<path d="M54.9863 23.0039H51.9863C51.4333 23.0039 50.9863 23.4509 50.9863 24.0039C50.9863 24.5569 51.4333 25.0039 51.9863 25.0039H54.9863C55.5393 25.0039 55.9863 24.5569 55.9863 24.0039C55.9863 23.4509 55.5393 23.0039 54.9863 23.0039Z" fill="#FF4CCD"/>
<path d="M36.9902 29.0039H45.9962C46.5492 29.0039 46.9962 28.5569 46.9962 28.0039C46.9962 27.4509 46.5492 27.0039 45.9962 27.0039H36.9902C36.4372 27.0039 35.9902 27.4509 35.9902 28.0039C35.9902 28.5569 36.4382 29.0039 36.9902 29.0039Z" fill="#FF4CCD"/>
<path d="M50.9844 29.0039H54.9854C55.5384 29.0039 55.9854 28.5569 55.9854 28.0039C55.9854 27.4509 55.5384 27.0039 54.9854 27.0039H50.9844C50.4314 27.0039 49.9844 27.4509 49.9844 28.0039C49.9844 28.5569 50.4324 29.0039 50.9844 29.0039Z" fill="#FF4CCD"/>
<path d="M36.9902 33.0039H40.9912C41.5442 33.0039 41.9912 32.5569 41.9912 32.0039C41.9912 31.4509 41.5442 31.0039 40.9912 31.0039H36.9902C36.4372 31.0039 35.9902 31.4509 35.9902 32.0039C35.9902 32.5569 36.4382 33.0039 36.9902 33.0039Z" fill="#FF4CCD"/>
<path d="M54.9863 31.0039H53.9883C53.4353 31.0039 52.9883 31.4509 52.9883 32.0039C52.9883 32.5569 53.4353 33.0039 53.9883 33.0039H54.9863C55.5393 33.0039 55.9863 32.5569 55.9863 32.0039C55.9863 31.4509 55.5393 31.0039 54.9863 31.0039Z" fill="#FF4CCD"/>
<path d="M27.001 35.0098H23C22.447 35.0098 22 35.4568 22 36.0098C22 36.5628 22.447 37.0098 23 37.0098H27.001C27.554 37.0098 28.001 36.5628 28.001 36.0098C28.001 35.4568 27.554 35.0098 27.001 35.0098Z" fill="#FF4CCD"/>
<path d="M18.0089 36.0098C18.0089 35.4568 17.5619 35.0098 17.0089 35.0098H9.00391C8.45091 35.0098 8.00391 35.4568 8.00391 36.0098C8.00391 36.5628 8.45091 37.0098 9.00391 37.0098H17.0089C17.5619 37.0098 18.0089 36.5628 18.0089 36.0098Z" fill="#FF4CCD"/>
<path d="M9.00391 39.0098C8.45091 39.0098 8.00391 39.4568 8.00391 40.0098C8.00391 40.5628 8.45091 41.0098 9.00391 41.0098H13.0049C13.5579 41.0098 14.0049 40.5628 14.0049 40.0098C14.0049 39.4568 13.5579 39.0098 13.0049 39.0098H9.00391Z" fill="#FF4CCD"/>
<path d="M18.0099 43.0098H9.00391C8.45091 43.0098 8.00391 43.4568 8.00391 44.0098C8.00391 44.5628 8.45091 45.0098 9.00391 45.0098H18.0099C18.5629 45.0098 19.0099 44.5628 19.0099 44.0098C19.0099 43.4568 18.5629 43.0098 18.0099 43.0098Z" fill="#FF4CCD"/>
<path d="M15.0069 47.0098H9.00391C8.45091 47.0098 8.00391 47.4568 8.00391 48.0098C8.00391 48.5628 8.45091 49.0098 9.00391 49.0098H15.0069C15.5599 49.0098 16.0069 48.5628 16.0069 48.0098C16.0069 47.4568 15.5599 47.0098 15.0069 47.0098Z" fill="#FF4CCD"/>
<path d="M27.001 39.0098H25.002C24.449 39.0098 24.002 39.4568 24.002 40.0098C24.002 40.5628 24.449 41.0098 25.002 41.0098H27.001C27.554 41.0098 28.001 40.5628 28.001 40.0098C28.001 39.4568 27.554 39.0098 27.001 39.0098Z" fill="#FF4CCD"/>
<path d="M9.00391 33H13.0049C13.5579 33 14.0049 32.553 14.0049 32C14.0049 31.447 13.5579 31 13.0049 31H9.00391C8.45091 31 8.00391 31.447 8.00391 32C8.00391 32.553 8.45091 33 9.00391 33Z" fill="#FF4CCD"/>
<path d="M27.001 31H25.002C24.449 31 24.002 31.447 24.002 32C24.002 32.553 24.449 33 25.002 33H27.001C27.554 33 28.001 32.553 28.001 32C28.001 31.447 27.554 31 27.001 31Z" fill="#FF4CCD"/>
<path d="M27 43.0098H26.002C25.449 43.0098 25.002 43.4568 25.002 44.0098C25.002 44.5628 25.449 45.0098 26.002 45.0098H27C27.553 45.0098 28 44.5628 28 44.0098C28 43.4568 27.553 43.0098 27 43.0098Z" fill="#FF4CCD"/>
<path d="M27 47.0098H24C23.447 47.0098 23 47.4568 23 48.0098C23 48.5628 23.447 49.0098 24 49.0098H27C27.553 49.0098 28 48.5628 28 48.0098C28 47.4568 27.553 47.0098 27 47.0098Z" fill="#FF4CCD"/>
<path d="M59.9839 4.00586C59.9769 4.00586 59.9709 4.00986 59.9639 4.00986H35.9909C34.3539 4.00986 32.9109 4.81386 32.0009 6.03486C31.0909 4.81286 29.6469 4.00986 28.0109 4.00986H4.03686C4.02986 4.00986 4.02386 4.00586 4.01686 4.00586C3.46386 4.00586 3.01686 4.45286 3.01686 5.00586V7.99886H1.00886C0.455859 7.99886 0.00885938 8.44586 0.00885938 8.99886V58.9809C0.00885938 58.9859 0.00585938 58.9909 0.00585938 58.9959C0.00585938 59.5489 0.452859 59.9959 1.00586 59.9959H31.9999H32.0019H62.9959C63.5489 59.9959 63.9959 59.5489 63.9959 58.9959C63.9959 58.9909 63.9929 58.9859 63.9929 58.9809V8.99886C63.9929 8.44586 63.5459 7.99886 62.9929 7.99886H60.9839V5.00586C60.9839 4.45286 60.5369 4.00586 59.9839 4.00586ZM2.00886 57.9959V9.99886H3.01786V55.0069C3.01786 55.5599 3.46486 56.0069 4.01786 56.0069H28.0109C29.3069 56.0069 30.4019 56.8409 30.8159 57.9959H2.00886ZM30.9909 8.99886V55.0199C30.1569 54.3929 29.1319 54.0069 28.0109 54.0069H5.01786V6.00986H28.0109C29.6499 6.00986 30.9819 7.33486 30.9969 8.96986C30.9969 8.97986 30.9909 8.98786 30.9909 8.99886ZM33.0049 8.96986C33.0209 7.33486 34.3529 6.00986 35.9909 6.00986H58.9839V54.0069H35.9909C34.8699 54.0069 33.8449 54.3929 33.0109 55.0199V8.99886C33.0109 8.98786 33.0049 8.97986 33.0049 8.96986ZM61.9929 9.99886V57.9959H33.1869C33.6009 56.8409 34.6959 56.0069 35.9919 56.0069H59.9849C60.5379 56.0069 60.9849 55.5599 60.9849 55.0069V9.99886H61.9929Z" fill="#FF4CCD"/>
<path d="M8.99414 25.9913H26.9931C27.5461 25.9913 27.9931 25.5443 27.9931 24.9913C27.9931 24.4383 27.5471 23.9923 26.9941 23.9913V21.9893C26.9941 21.9873 26.9931 21.9853 26.9931 21.9823C26.9891 17.3623 23.4841 13.5493 18.9931 13.0493V12.9883C18.9931 12.4353 18.5461 11.9883 17.9931 11.9883C17.4401 11.9883 16.9931 12.4353 16.9931 12.9883V13.0493C12.5001 13.5493 8.99414 17.3653 8.99314 21.9883V23.9903C8.44114 23.9913 7.99414 24.4373 7.99414 24.9903C7.99414 25.5433 8.44114 25.9913 8.99414 25.9913ZM10.9931 21.9903C10.9931 18.1313 14.1341 14.9913 17.9931 14.9913C21.8521 14.9913 24.9931 18.1313 24.9931 21.9903C24.9931 21.9923 24.9941 21.9933 24.9941 21.9953V23.9913H10.9931V21.9903Z" fill="#FF4CCD"/>
<path d="M18 15.9941C17.447 15.9941 17 16.4411 17 16.9941C17 17.5471 17.447 17.9941 18 17.9941C20.202 17.9941 21.994 19.7861 21.994 21.9881C21.994 22.5411 22.441 22.9881 22.994 22.9881C23.547 22.9881 23.994 22.5411 23.994 21.9881C23.994 18.6831 21.306 15.9941 18 15.9941Z" fill="#FF4CCD"/>
</svg>
