<svg width="64" height="64" viewBox="0 0 64 64" fill="none" xmlns="http://www.w3.org/2000/svg">
<path d="M60 40.9953C59.989 40.9953 59.981 41.0013 59.971 41.0013H58V39.9073C60.389 38.5223 62.002 35.9453 62.002 32.9933C62.002 32.9903 62 32.9873 62 32.9833V32.6173L62.552 32.8933C62.695 32.9653 62.848 32.9993 62.998 32.9993C63.365 32.9993 63.718 32.7973 63.894 32.4463C64.141 31.9523 63.941 31.3513 63.447 31.1043L63.235 30.9993L63.446 30.8943C63.94 30.6473 64.14 30.0463 63.893 29.5523C63.646 29.0573 63.045 28.8573 62.551 29.1053L61.97 29.3963C61.667 25.2603 58.212 21.9863 53.999 21.9863C49.588 21.9863 45.999 25.5733 45.999 29.9823C45.999 29.9853 46.001 29.9883 46.001 29.9913C46.001 29.9943 46 29.9963 46 29.9993V32.9953C46 33.0003 46.003 33.0043 46.003 33.0093C46.009 35.9533 47.618 38.5233 50 39.9053V41.0013H48.029C48.018 41.0013 48.01 40.9953 48 40.9953C45.794 40.9953 44 42.7893 44 44.9953V50.0013C44 50.5543 44.447 51.0013 45 51.0013H63C63.553 51.0013 64 50.5543 64 50.0013V44.9953C64 42.7893 62.206 40.9953 60 40.9953ZM48 29.9813C48 26.6753 50.691 23.9853 54 23.9853C57.309 23.9853 60 26.6753 60 29.9813C60 29.9843 60.002 29.9873 60.002 29.9903C60.002 29.9933 60 29.9963 60 29.9993H48C48 29.9963 47.998 29.9933 47.998 29.9903C47.998 29.9873 48 29.9843 48 29.9813ZM48.002 32.9933C48.002 32.9903 48 32.9873 48 32.9833V31.9993H60V32.9953C60 32.9973 60.002 33.0003 60.002 33.0033C59.996 36.3043 57.308 38.9883 54.002 38.9883C50.693 38.9883 48.002 36.2993 48.002 32.9933ZM56 40.7263V41.3833L54.001 42.3823L52 41.3823V40.7253C52.642 40.8913 53.31 40.9893 54.002 40.9893C54.693 40.9883 55.36 40.8913 56 40.7263ZM50.553 44.1043C50.508 44.1263 50.48 44.1653 50.44 44.1923C50.38 44.2343 50.32 44.2713 50.271 44.3253C50.227 44.3723 50.199 44.4283 50.165 44.4823C50.132 44.5373 50.095 44.5863 50.071 44.6473C50.046 44.7153 50.04 44.7873 50.029 44.8593C50.021 44.9073 50 44.9493 50 44.9993V49.0013H46V44.9953C46 43.8993 46.887 43.0083 47.98 42.9973C47.987 42.9973 47.993 43.0013 48 43.0013H50.766L51.764 43.4993L50.553 44.1043ZM62 49.0013H52V45.6173L57.236 43.0013H60C60.007 43.0013 60.013 42.9973 60.02 42.9973C61.113 43.0083 62 43.8993 62 44.9953V49.0013Z" fill="#FF4CCD"/>
<path d="M31.0265 56.002H31.0155C30.4635 56.002 30.0215 56.449 30.0215 57.002C30.0215 57.555 30.4735 58.002 31.0265 58.002C31.5785 58.002 32.0265 57.555 32.0265 57.002C32.0265 56.449 31.5785 56.002 31.0265 56.002Z" fill="#FF4CCD"/>
<path d="M22.0004 33.864V37.927C21.9984 37.953 21.9844 37.977 21.9844 38.004C21.9844 38.031 21.9984 38.055 22.0004 38.081V40.927C21.9984 40.953 21.9844 40.977 21.9844 41.004C21.9844 44.695 24.0004 47.918 26.9844 49.65V51.003H24.9844C21.6754 51.003 18.9844 53.694 18.9844 57.003V60.001C18.9844 61.104 19.8814 62.001 20.9844 62.001H42.9844C44.0874 62.001 44.9844 61.104 44.9844 60.001V57.003C44.9844 53.694 42.2934 51.003 38.9844 51.003H36.9844V49.649C39.9684 47.918 41.9844 44.695 41.9844 41.004C41.9864 40.978 42.0004 40.953 42.0004 40.925V33.86C43.7214 33.413 45.0004 31.86 45.0004 30.002C45.0004 27.796 43.2064 26.002 41.0004 26.002H36.4604C35.3604 24.778 33.7724 24.002 32.0004 24.002C30.2284 24.002 28.6404 24.778 27.5404 26.002H22.9844C20.7784 26.002 18.9844 27.796 18.9844 30.002C18.9844 31.865 20.2714 33.422 22.0004 33.864ZM27.6314 54.075C27.5574 54.105 27.4964 54.154 27.4324 54.2C27.3904 54.23 27.3404 54.251 27.3044 54.286C27.2554 54.334 27.2244 54.396 27.1854 54.454C27.1534 54.503 27.1114 54.545 27.0874 54.599C27.0664 54.649 27.0634 54.706 27.0494 54.759C27.0304 54.833 27.0064 54.905 27.0044 54.982C27.0044 54.988 27.0004 54.994 27.0004 55.001V60.001H20.9894C20.9874 60.001 20.9864 60 20.9844 60V57.003C20.9844 54.797 22.7784 53.003 24.9844 53.003H27.8174L29.1464 53.502L27.6484 54.065C27.6424 54.067 27.6384 54.073 27.6314 54.075ZM28.9844 51.304V50.542C29.9314 50.841 30.9384 51.003 31.9834 51.003C33.0284 51.003 34.0364 50.841 34.9844 50.542V51.31L31.9914 52.434L28.9844 51.304ZM38.9844 53.003C41.1904 53.003 42.9844 54.797 42.9844 57.003V60.001H29.0004V55.694L36.1674 53.003H38.9844ZM40.0004 40.925C39.9984 40.953 39.9844 40.977 39.9844 41.005C39.9844 45.415 36.3954 49.003 31.9834 49.003C27.6064 49.003 24.0444 45.469 23.9894 41.106C23.9904 41.088 24.0004 41.072 24.0004 41.054V39.005H40.0004V40.925ZM22.9844 28.001H26.3494C26.1284 28.627 26.0004 29.299 26.0004 30.001C26.0004 30.553 26.4474 31.001 27.0004 31.001C27.5534 31.001 28.0004 30.553 28.0004 30.001C28.0004 27.795 29.7944 26.001 32.0004 26.001C34.2064 26.001 36.0004 27.795 36.0004 30.001C36.0004 30.553 36.4474 31.001 37.0004 31.001C37.5534 31.001 38.0004 30.553 38.0004 30.001C38.0004 29.299 37.8724 28.627 37.6504 28.001H41.0004C42.1034 28.001 43.0004 28.898 43.0004 30.001C43.0004 31.104 42.1034 32.001 41.0004 32.001C40.4474 32.001 40.0004 32.449 40.0004 33.001V37.005H24.0004V33.001C24.0004 32.449 23.5534 32.001 23.0004 32.001C22.9974 32.001 22.9954 32.002 22.9924 32.002C22.9894 32.002 22.9874 32.001 22.9844 32.001C21.8814 32.001 20.9844 31.104 20.9844 30.001C20.9844 28.898 21.8824 28.001 22.9844 28.001Z" fill="#FF4CCD"/>
<path d="M1 51.0023H19C19.553 51.0023 20 50.5553 20 50.0023V44.9963C20 42.7903 18.206 40.9963 16 40.9963C15.989 40.9963 15.981 41.0023 15.971 41.0023H14V39.9063C16.382 38.5233 17.991 35.9543 17.997 33.0103C17.997 33.0053 18 33.0013 18 32.9963V30.0003C18 29.9973 17.998 29.9943 17.998 29.9913C17.998 29.9883 18 29.9853 18 29.9823C18 25.5733 14.411 21.9863 10 21.9863C5.787 21.9863 2.332 25.2603 2.029 29.3963L1.448 29.1053C0.955 28.8573 0.354 29.0583 0.106 29.5523C-0.141 30.0463 0.059 30.6473 0.553 30.8943L0.765 31.0003L0.554 31.1053C0.06 31.3523 -0.14 31.9533 0.107 32.4473C0.282 32.7983 0.635 33.0003 1.002 33.0003C1.152 33.0003 1.305 32.9663 1.448 32.8953L2 32.6193V32.9853C2 32.9883 1.998 32.9913 1.998 32.9953C1.998 35.9473 3.611 38.5243 6 39.9093V41.0033H4.029C4.018 41.0033 4.01 40.9973 4 40.9973C1.794 40.9973 0 42.7913 0 44.9973V50.0033C0 50.5553 0.447 51.0023 1 51.0023ZM16 43.0023C16.007 43.0023 16.013 42.9983 16.02 42.9983C17.113 43.0093 18 43.9003 18 44.9963V49.0023H8V45.6183L13.236 43.0023H16ZM8 41.3833V40.7273C8.64 40.8923 9.307 40.9903 9.998 40.9903C10.69 40.9903 11.358 40.8923 12 40.7263V41.3843L10.001 42.3833L8 41.3833ZM4 29.9823C4 26.6763 6.691 23.9863 10 23.9863C13.309 23.9863 16 26.6763 16 29.9823C16 29.9853 16.002 29.9883 16.002 29.9913C16.002 29.9943 16 29.9973 16 30.0003H4C4 29.9973 3.998 29.9943 3.998 29.9913C3.998 29.9883 4 29.9853 4 29.9823ZM3.998 33.0043C3.998 33.0013 4 32.9993 4 32.9963V32.0003H16V32.9843C16 32.9873 15.998 32.9903 15.998 32.9943C15.998 36.3003 13.307 38.9893 9.998 38.9893C6.692 38.9893 4.004 36.3053 3.998 33.0043ZM2 44.9963C2 43.9003 2.887 43.0093 3.98 42.9983C3.987 42.9983 3.993 43.0023 4 43.0023H6.766L7.764 43.5003L6.553 44.1053C6.508 44.1273 6.48 44.1663 6.44 44.1933C6.38 44.2353 6.32 44.2723 6.271 44.3263C6.227 44.3733 6.199 44.4293 6.165 44.4833C6.132 44.5383 6.095 44.5873 6.071 44.6483C6.046 44.7163 6.04 44.7883 6.029 44.8603C6.021 44.9083 6 44.9503 6 45.0003V49.0023H2V44.9963Z" fill="#FF4CCD"/>
<path d="M24.002 21.002H40.001C42.207 21.002 44.001 19.208 44.001 17.002C44.001 16.45 43.554 16.002 43.001 16.002V14.023C43.001 8.291 38.601 3.571 33.001 3.054V3C33.001 2.448 32.554 2 32.001 2C31.448 2 31.001 2.448 31.001 3V3.053C25.382 3.551 20.96 8.278 20.96 14.024V16.011C20.428 16.034 20.002 16.466 20.002 17.003C20.002 19.208 21.796 21.002 24.002 21.002ZM22.96 14.023C22.96 9.049 27.007 5.002 31.981 5.002C36.955 5.002 41.001 9.049 41.001 14.023V16.002H22.96V14.023ZM41.723 18.002C41.376 18.597 40.738 19.002 40.001 19.002H24.002C23.266 19.002 22.627 18.597 22.28 18.002H41.723Z" fill="#FF4CCD"/>
<path d="M31.9785 6.00391C31.4255 6.00391 30.9785 6.45191 30.9785 7.00391C30.9785 7.55591 31.4255 8.00391 31.9785 8.00391C35.2975 8.00391 37.9995 10.7049 37.9995 14.0249C37.9995 14.5769 38.4465 15.0249 38.9995 15.0249C39.5525 15.0249 39.9995 14.5769 39.9995 14.0249C39.9995 9.60191 36.4015 6.00391 31.9785 6.00391Z" fill="#FF4CCD"/>
</svg>
