<svg width="28" height="27" viewBox="0 0 28 27" fill="none" xmlns="http://www.w3.org/2000/svg">
<path d="M10.7276 24.1252C11.3301 24.1252 11.8185 23.6368 11.8185 23.0343C11.8185 22.4318 11.3301 21.9434 10.7276 21.9434C10.1251 21.9434 9.63672 22.4318 9.63672 23.0343C9.63672 23.6368 10.1251 24.1252 10.7276 24.1252Z" stroke="white" stroke-width="2.18182" stroke-linecap="round" stroke-linejoin="round"/>
<path d="M19.4542 24.1252C20.0567 24.1252 20.5451 23.6368 20.5451 23.0343C20.5451 22.4318 20.0567 21.9434 19.4542 21.9434C18.8517 21.9434 18.3633 22.4318 18.3633 23.0343C18.3633 23.6368 18.8517 24.1252 19.4542 24.1252Z" stroke="white" stroke-width="2.18182" stroke-linecap="round" stroke-linejoin="round"/>
<path d="M3.0918 2.30859H4.5167C4.78509 2.30859 4.91928 2.30859 5.02727 2.35795C5.12243 2.40144 5.20308 2.47138 5.2596 2.55944C5.32373 2.65937 5.3427 2.79221 5.38066 3.0579L5.89699 6.67223M5.89699 6.67223L7.04451 15.1065C7.19013 16.1768 7.26294 16.712 7.51881 17.1148C7.74428 17.4697 8.06752 17.752 8.44964 17.9275C8.88328 18.1268 9.42337 18.1268 10.5035 18.1268H19.8394C20.8677 18.1268 21.3818 18.1268 21.8019 17.9418C22.1724 17.7787 22.4902 17.5157 22.7197 17.1823C22.9801 16.8042 23.0763 16.2991 23.2687 15.2891L24.7126 7.70825C24.7804 7.35275 24.8142 7.17499 24.7651 7.03605C24.7221 6.91416 24.6372 6.81152 24.5255 6.74643C24.3982 6.67223 24.2172 6.67223 23.8553 6.67223H5.89699Z" stroke="white" stroke-width="2.18182" stroke-linecap="round" stroke-linejoin="round"/>
</svg>
